<?xml version="1.0" encoding="UTF-8" standalone="no"?>
<!DOCTYPE svg PUBLIC "-//W3C//DTD SVG 1.1//EN"
 "http://www.w3.org/Graphics/SVG/1.1/DTD/svg11.dtd">
<!-- Generated by graphviz version 2.49.3 (0)
 -->
<!-- Title: AST Pages: 1 -->
<svg width="511pt" height="517pt"
 viewBox="0.00 0.00 510.50 517.00" xmlns="http://www.w3.org/2000/svg" xmlns:xlink="http://www.w3.org/1999/xlink">
<g id="graph0" class="graph" transform="scale(1 1) rotate(0) translate(4 513)">
<title>AST</title>
<polygon fill="white" stroke="transparent" points="-4,4 -4,-513 506.5,-513 506.5,4 -4,4"/>
<text text-anchor="middle" x="251.25" y="-7.8" font-family="JetBrains Mono" font-size="14.00">kopf &#45; Abstract Syntax Tree</text>
<!-- Node_0 -->
<g id="node1" class="node">
<title>Node_0</title>
<polygon fill="none" stroke="black" points="157.5,-509 116.5,-509 116.5,-468 157.5,-468 157.5,-509"/>
<text text-anchor="middle" x="137" y="-487.5" font-family="JetBrains Mono" font-size="5.00">COMPOUND</text>
</g>
<!-- Node_1 -->
<g id="node2" class="node">
<title>Node_1</title>
<polygon fill="none" stroke="black" points="58.5,-424.5 17.5,-424.5 17.5,-383.5 58.5,-383.5 58.5,-424.5"/>
<text text-anchor="middle" x="38" y="-403" font-family="JetBrains Mono" font-size="5.00">COMPOUND</text>
</g>
<!-- Node_0&#45;&gt;Node_1 -->
<g id="edge3" class="edge">
<title>Node_0&#45;&gt;Node_1</title>
<path fill="none" stroke="black" d="M116.23,-471.28C102.4,-460.37 83.92,-445.55 68,-432 67.42,-431.51 66.83,-431.01 66.25,-430.5"/>
<polygon fill="black" stroke="black" points="68.35,-427.69 58.52,-423.74 63.75,-432.96 68.35,-427.69"/>
</g>
<!-- Node_4 -->
<g id="node5" class="node">
<title>Node_4</title>
<polygon fill="none" stroke="black" points="127,-429 77,-429 77,-379 127,-379 127,-429"/>
<text text-anchor="middle" x="102" y="-403" font-family="JetBrains Mono" font-size="5.00">var_decl PI</text>
</g>
<!-- Node_0&#45;&gt;Node_4 -->
<g id="edge7" class="edge">
<title>Node_0&#45;&gt;Node_4</title>
<path fill="none" stroke="black" d="M128.71,-467.95C124.97,-459.14 120.45,-448.48 116.2,-438.46"/>
<polygon fill="black" stroke="black" points="119.36,-436.97 112.24,-429.13 112.92,-439.7 119.36,-436.97"/>
</g>
<!-- Node_8 -->
<g id="node9" class="node">
<title>Node_8</title>
<polygon fill="none" stroke="black" points="201,-432 145,-432 145,-376 201,-376 201,-432"/>
<text text-anchor="middle" x="173" y="-403" font-family="JetBrains Mono" font-size="5.00">var_decl POOP</text>
</g>
<!-- Node_0&#45;&gt;Node_8 -->
<g id="edge9" class="edge">
<title>Node_0&#45;&gt;Node_8</title>
<path fill="none" stroke="black" d="M145.53,-467.95C148.99,-460.03 153.1,-450.61 157.07,-441.51"/>
<polygon fill="black" stroke="black" points="160.33,-442.78 161.12,-432.21 153.92,-439.98 160.33,-442.78"/>
</g>
<!-- Node_10 -->
<g id="node11" class="node">
<title>Node_10</title>
<polygon fill="none" stroke="black" points="289,-422 253,-422 253,-386 289,-386 289,-422"/>
<text text-anchor="middle" x="271" y="-403" font-family="JetBrains Mono" font-size="5.00">BLOCK</text>
</g>
<!-- Node_0&#45;&gt;Node_10 -->
<g id="edge21" class="edge">
<title>Node_0&#45;&gt;Node_10</title>
<path fill="none" stroke="black" d="M157.64,-474.79C180.79,-460.54 218.41,-437.38 243.91,-421.68"/>
<polygon fill="black" stroke="black" points="246.02,-424.49 252.7,-416.27 242.35,-418.53 246.02,-424.49"/>
</g>
<!-- Node_2 -->
<g id="node3" class="node">
<title>Node_2</title>
<polygon fill="none" stroke="black" points="62,-340 0,-340 0,-278 62,-278 62,-340"/>
<text text-anchor="middle" x="31" y="-308" font-family="JetBrains Mono" font-size="5.00">var_decl NUMBER</text>
</g>
<!-- Node_1&#45;&gt;Node_2 -->
<g id="edge2" class="edge">
<title>Node_1&#45;&gt;Node_2</title>
<path fill="none" stroke="black" d="M36.52,-383.28C35.8,-373.72 34.91,-361.89 34.05,-350.53"/>
<polygon fill="black" stroke="black" points="37.52,-350.02 33.28,-340.31 30.54,-350.55 37.52,-350.02"/>
</g>
<!-- Node_3 -->
<g id="node4" class="node">
<title>Node_3</title>
<polygon fill="none" stroke="black" points="53,-239 9,-239 9,-195 53,-195 53,-239"/>
<text text-anchor="middle" x="31" y="-216" font-family="JetBrains Mono" font-size="5.00">12.566368</text>
</g>
<!-- Node_2&#45;&gt;Node_3 -->
<g id="edge1" class="edge">
<title>Node_2&#45;&gt;Node_3</title>
<path fill="none" stroke="black" d="M31,-277.53C31,-268.44 31,-258.46 31,-249.32"/>
<polygon fill="black" stroke="black" points="34.5,-249.07 31,-239.07 27.5,-249.07 34.5,-249.07"/>
</g>
<!-- Node_5 -->
<g id="node6" class="node">
<title>Node_5</title>
<polygon fill="none" stroke="black" points="130,-334 80,-334 80,-284 130,-284 130,-334"/>
<text text-anchor="middle" x="105" y="-308" font-family="JetBrains Mono" font-size="5.00">TOKEN_SLASH</text>
</g>
<!-- Node_4&#45;&gt;Node_5 -->
<g id="edge6" class="edge">
<title>Node_4&#45;&gt;Node_5</title>
<path fill="none" stroke="black" d="M102.79,-378.57C103.13,-368.1 103.53,-355.69 103.89,-344.33"/>
<polygon fill="black" stroke="black" points="107.39,-344.38 104.22,-334.27 100.4,-344.15 107.39,-344.38"/>
</g>
<!-- Node_6 -->
<g id="node7" class="node">
<title>Node_6</title>
<polygon fill="none" stroke="black" points="125,-242 75,-242 75,-192 125,-192 125,-242"/>
<text text-anchor="middle" x="100" y="-216" font-family="JetBrains Mono" font-size="5.00">var: NUMBER</text>
</g>
<!-- Node_5&#45;&gt;Node_6 -->
<g id="edge4" class="edge">
<title>Node_5&#45;&gt;Node_6</title>
<path fill="none" stroke="black" d="M103.66,-283.88C103.12,-274.2 102.49,-262.85 101.91,-252.34"/>
<polygon fill="black" stroke="black" points="105.39,-251.98 101.34,-242.18 98.4,-252.36 105.39,-251.98"/>
</g>
<!-- Node_7 -->
<g id="node8" class="node">
<title>Node_7</title>
<polygon fill="none" stroke="black" points="184.5,-237.5 143.5,-237.5 143.5,-196.5 184.5,-196.5 184.5,-237.5"/>
<text text-anchor="middle" x="164" y="-216" font-family="JetBrains Mono" font-size="5.00">4.000000</text>
</g>
<!-- Node_5&#45;&gt;Node_7 -->
<g id="edge5" class="edge">
<title>Node_5&#45;&gt;Node_7</title>
<path fill="none" stroke="black" d="M120.81,-283.88C128.45,-272.23 137.65,-258.19 145.6,-246.06"/>
<polygon fill="black" stroke="black" points="148.57,-247.92 151.13,-237.63 142.72,-244.08 148.57,-247.92"/>
</g>
<!-- Node_9 -->
<g id="node10" class="node">
<title>Node_9</title>
<polygon fill="none" stroke="black" points="190,-328 152,-328 152,-290 190,-290 190,-328"/>
<text text-anchor="middle" x="171" y="-308" font-family="JetBrains Mono" font-size="5.00">var: PI</text>
</g>
<!-- Node_8&#45;&gt;Node_9 -->
<g id="edge8" class="edge">
<title>Node_8&#45;&gt;Node_9</title>
<path fill="none" stroke="black" d="M172.41,-375.6C172.16,-363.87 171.86,-350.17 171.61,-338.34"/>
<polygon fill="black" stroke="black" points="175.1,-338.03 171.39,-328.1 168.11,-338.18 175.1,-338.03"/>
</g>
<!-- Node_11 -->
<g id="node12" class="node">
<title>Node_11</title>
<polygon fill="none" stroke="black" points="261.5,-335.5 208.5,-335.5 208.5,-282.5 261.5,-282.5 261.5,-335.5"/>
<text text-anchor="middle" x="235" y="-308" font-family="JetBrains Mono" font-size="5.00">var_decl DOG</text>
</g>
<!-- Node_10&#45;&gt;Node_11 -->
<g id="edge11" class="edge">
<title>Node_10&#45;&gt;Node_11</title>
<path fill="none" stroke="black" d="M264.4,-385.94C259.98,-374.52 254,-359.08 248.59,-345.1"/>
<polygon fill="black" stroke="black" points="251.83,-343.79 244.96,-335.73 245.31,-346.32 251.83,-343.79"/>
</g>
<!-- Node_13 -->
<g id="node14" class="node">
<title>Node_13</title>
<polygon fill="none" stroke="black" points="326.5,-332.5 279.5,-332.5 279.5,-285.5 326.5,-285.5 326.5,-332.5"/>
<text text-anchor="middle" x="303" y="-308" font-family="JetBrains Mono" font-size="5.00">TOKEN_PLUS</text>
</g>
<!-- Node_10&#45;&gt;Node_13 -->
<g id="edge14" class="edge">
<title>Node_10&#45;&gt;Node_13</title>
<path fill="none" stroke="black" d="M276.87,-385.94C281.06,-373.76 286.83,-356.99 291.88,-342.31"/>
<polygon fill="black" stroke="black" points="295.29,-343.16 295.24,-332.56 288.67,-340.88 295.29,-343.16"/>
</g>
<!-- Node_16 -->
<g id="node17" class="node">
<title>Node_16</title>
<polygon fill="none" stroke="black" points="405,-327 369,-327 369,-291 405,-291 405,-327"/>
<text text-anchor="middle" x="387" y="-308" font-family="JetBrains Mono" font-size="5.00">BLOCK</text>
</g>
<!-- Node_10&#45;&gt;Node_16 -->
<g id="edge20" class="edge">
<title>Node_10&#45;&gt;Node_16</title>
<path fill="none" stroke="black" d="M289.12,-388.47C308.34,-373.07 338.86,-348.6 360.71,-331.08"/>
<polygon fill="black" stroke="black" points="363.01,-333.72 368.62,-324.74 358.63,-328.26 363.01,-333.72"/>
</g>
<!-- Node_12 -->
<g id="node13" class="node">
<title>Node_12</title>
<polygon fill="none" stroke="black" points="253.5,-240.5 206.5,-240.5 206.5,-193.5 253.5,-193.5 253.5,-240.5"/>
<text text-anchor="middle" x="230" y="-216" font-family="JetBrains Mono" font-size="5.00">123.456000</text>
</g>
<!-- Node_11&#45;&gt;Node_12 -->
<g id="edge10" class="edge">
<title>Node_11&#45;&gt;Node_12</title>
<path fill="none" stroke="black" d="M233.58,-282.45C233.03,-272.55 232.39,-261.1 231.81,-250.61"/>
<polygon fill="black" stroke="black" points="235.3,-250.34 231.25,-240.55 228.31,-250.73 235.3,-250.34"/>
</g>
<!-- Node_14 -->
<g id="node15" class="node">
<title>Node_14</title>
<polygon fill="none" stroke="black" points="312.5,-237.5 271.5,-237.5 271.5,-196.5 312.5,-196.5 312.5,-237.5"/>
<text text-anchor="middle" x="292" y="-216" font-family="JetBrains Mono" font-size="5.00">var: DOG</text>
</g>
<!-- Node_13&#45;&gt;Node_14 -->
<g id="edge12" class="edge">
<title>Node_13&#45;&gt;Node_14</title>
<path fill="none" stroke="black" d="M300.22,-285.29C298.84,-273.93 297.14,-260.04 295.65,-247.83"/>
<polygon fill="black" stroke="black" points="299.09,-247.15 294.4,-237.65 292.14,-248 299.09,-247.15"/>
</g>
<!-- Node_15 -->
<g id="node16" class="node">
<title>Node_15</title>
<polygon fill="none" stroke="black" points="377.5,-240.5 330.5,-240.5 330.5,-193.5 377.5,-193.5 377.5,-240.5"/>
<text text-anchor="middle" x="354" y="-216" font-family="JetBrains Mono" font-size="5.00">123.000000</text>
</g>
<!-- Node_13&#45;&gt;Node_15 -->
<g id="edge13" class="edge">
<title>Node_13&#45;&gt;Node_15</title>
<path fill="none" stroke="black" d="M315.87,-285.29C322.03,-274.42 329.51,-261.22 336.2,-249.41"/>
<polygon fill="black" stroke="black" points="339.25,-251.13 341.13,-240.7 333.16,-247.68 339.25,-251.13"/>
</g>
<!-- Node_17 -->
<g id="node18" class="node">
<title>Node_17</title>
<polygon fill="none" stroke="black" points="442.5,-240.5 395.5,-240.5 395.5,-193.5 442.5,-193.5 442.5,-240.5"/>
<text text-anchor="middle" x="419" y="-216" font-family="JetBrains Mono" font-size="5.00">TOKEN_PLUS</text>
</g>
<!-- Node_16&#45;&gt;Node_17 -->
<g id="edge19" class="edge">
<title>Node_16&#45;&gt;Node_17</title>
<path fill="none" stroke="black" d="M393.17,-290.65C397.23,-279.22 402.68,-263.91 407.52,-250.29"/>
<polygon fill="black" stroke="black" points="410.86,-251.35 410.91,-240.75 404.26,-249 410.86,-251.35"/>
</g>
<!-- Node_18 -->
<g id="node19" class="node">
<title>Node_18</title>
<polygon fill="none" stroke="black" points="407.5,-151.5 366.5,-151.5 366.5,-110.5 407.5,-110.5 407.5,-151.5"/>
<text text-anchor="middle" x="387" y="-130" font-family="JetBrains Mono" font-size="5.00">var: DOG</text>
</g>
<!-- Node_17&#45;&gt;Node_18 -->
<g id="edge17" class="edge">
<title>Node_17&#45;&gt;Node_18</title>
<path fill="none" stroke="black" d="M410.42,-193.49C406.66,-183.62 402.2,-171.9 398.19,-161.36"/>
<polygon fill="black" stroke="black" points="401.34,-159.81 394.51,-151.71 394.8,-162.3 401.34,-159.81"/>
</g>
<!-- Node_19 -->
<g id="node20" class="node">
<title>Node_19</title>
<polygon fill="none" stroke="black" points="476,-156 426,-156 426,-106 476,-106 476,-156"/>
<text text-anchor="middle" x="451" y="-130" font-family="JetBrains Mono" font-size="5.00">TOKEN_SLASH</text>
</g>
<!-- Node_17&#45;&gt;Node_19 -->
<g id="edge18" class="edge">
<title>Node_17&#45;&gt;Node_19</title>
<path fill="none" stroke="black" d="M427.58,-193.49C430.85,-184.91 434.65,-174.93 438.22,-165.53"/>
<polygon fill="black" stroke="black" points="441.55,-166.64 441.84,-156.04 435.01,-164.14 441.55,-166.64"/>
</g>
<!-- Node_20 -->
<g id="node21" class="node">
<title>Node_20</title>
<polygon fill="none" stroke="black" points="443.5,-70 396.5,-70 396.5,-23 443.5,-23 443.5,-70"/>
<text text-anchor="middle" x="420" y="-45.5" font-family="JetBrains Mono" font-size="5.00">100.000000</text>
</g>
<!-- Node_19&#45;&gt;Node_20 -->
<g id="edge15" class="edge">
<title>Node_19&#45;&gt;Node_20</title>
<path fill="none" stroke="black" d="M441.87,-105.69C438.8,-97.54 435.34,-88.33 432.09,-79.67"/>
<polygon fill="black" stroke="black" points="435.33,-78.35 428.54,-70.22 428.78,-80.81 435.33,-78.35"/>
</g>
<!-- Node_21 -->
<g id="node22" class="node">
<title>Node_21</title>
<polygon fill="none" stroke="black" points="502.5,-67 461.5,-67 461.5,-26 502.5,-26 502.5,-67"/>
<text text-anchor="middle" x="482" y="-45.5" font-family="JetBrains Mono" font-size="5.00">2.000000</text>
</g>
<!-- Node_19&#45;&gt;Node_21 -->
<g id="edge16" class="edge">
<title>Node_19&#45;&gt;Node_21</title>
<path fill="none" stroke="black" d="M460.13,-105.69C463.55,-96.59 467.47,-86.16 471.04,-76.66"/>
<polygon fill="black" stroke="black" points="474.36,-77.79 474.6,-67.2 467.8,-75.33 474.36,-77.79"/>
</g>
</g>
</svg>
